<svg width="1444" height="1444" viewBox="0 0 1444 1444" fill="none" xmlns="http://www.w3.org/2000/svg">
<rect width="1444" height="1444" fill="#F5F5F5"/>
<rect width="1444" height="1444" fill="#292B2D"/>
<path d="M961.601 989.417C953.265 989.602 945.126 986.876 938.584 981.708C932.042 976.539 927.506 969.252 925.757 961.1C912.25 897.216 905.284 832.123 904.967 766.827L823.244 704.459C818.394 700.768 814.565 695.902 812.119 690.32C809.673 684.739 808.691 678.625 809.265 672.558C809.845 666.497 811.959 660.685 815.408 655.668C818.858 650.651 823.528 646.595 828.979 643.883L917.871 599.795C930.364 520.027 952.386 442.047 983.465 367.528C850.099 424.111 730.614 508.986 633.272 616.283C547.121 711.008 489.904 828.427 468.391 954.648C467.65 959.314 465.995 963.788 463.519 967.811C461.044 971.835 457.798 975.33 453.967 978.095C450.136 980.86 445.797 982.84 441.198 983.922C436.599 985.004 431.832 985.166 427.17 984.399C417.819 982.899 409.441 977.76 403.867 970.104C398.292 962.448 395.975 952.896 397.42 943.537C421.339 803.931 484.495 674.015 579.506 568.97C705.932 431.576 864.601 327.85 1041.17 267.165C1047.96 264.694 1055.33 264.329 1062.32 266.117C1069.31 267.905 1075.61 271.763 1080.37 277.186C1085.13 282.609 1088.15 289.344 1089.02 296.51C1089.9 303.676 1088.59 310.938 1085.26 317.346C1034.82 414.697 1001.25 519.896 985.974 628.47C985.167 634.277 982.947 639.797 979.51 644.546C976.073 649.295 971.524 653.129 966.26 655.711L912.853 682.236L962.318 718.079C966.769 721.418 970.382 725.748 972.871 730.725C975.359 735.702 976.655 741.19 976.655 746.755C975.819 813.729 982.553 880.583 996.727 946.046C998.756 955.313 997.027 965.007 991.921 973.002C986.815 980.997 978.747 986.642 969.486 988.7C966.899 989.277 964.249 989.518 961.601 989.417Z" fill="url(#paint0_linear_0_1)"/>
<path d="M732.895 1044.46C694.601 1044.57 656.56 1038.27 620.345 1025.82L565.863 1007.18C541.484 998.9 516.223 993.487 490.591 991.055C451.289 987.372 411.644 991.142 373.74 1002.17L230.365 1043.03C225.731 1044.5 220.846 1045.01 216.007 1044.54C211.168 1044.06 206.476 1042.6 202.218 1040.26C197.96 1037.91 194.223 1034.72 191.236 1030.88C188.25 1027.05 186.075 1022.64 184.844 1017.94C182.304 1008.81 183.48 999.052 188.114 990.791C192.749 982.53 200.465 976.439 209.576 973.85L352.951 932.629C399.523 919.446 448.125 914.95 496.326 919.367C527.73 922.095 558.674 928.718 588.444 939.081L642.927 957.72C704.872 978.905 772.332 977.381 833.257 953.419L855.122 946.25C930.898 916.386 1014.76 914.102 1092.05 939.798L1151.55 959.512C1159.88 962.06 1168.76 962.164 1177.15 959.813C1185.54 957.463 1193.07 952.755 1198.86 946.25C1205.61 939.501 1214.77 935.709 1224.31 935.709C1233.86 935.709 1243.01 939.501 1249.76 946.25C1256.51 953 1260.3 962.154 1260.3 971.699C1260.3 981.244 1256.51 990.399 1249.76 997.148C1234.2 1012.56 1214.68 1023.36 1193.36 1028.35C1172.04 1033.35 1149.75 1032.35 1128.97 1025.46L1069.47 1005.39C1008.05 985.075 941.446 986.978 881.288 1010.77L860.498 1019.01C819.985 1035.58 776.666 1044.22 732.895 1044.46Z" fill="url(#paint1_linear_0_1)"/>
<path d="M733.363 1171.74C695.07 1171.85 657.029 1165.55 620.814 1153.1L566.331 1134.46C541.953 1126.18 516.692 1120.77 491.059 1118.33C451.757 1114.65 412.113 1118.42 374.209 1129.44L230.834 1170.31C226.199 1171.78 221.314 1172.29 216.475 1171.81C211.636 1171.34 206.945 1169.88 202.686 1167.53C198.428 1165.19 194.692 1162 191.705 1158.16C188.718 1154.32 186.543 1149.92 185.312 1145.22C182.773 1136.09 183.949 1126.33 188.583 1118.07C193.217 1109.81 200.933 1103.72 210.044 1101.13L353.419 1059.91C399.992 1046.72 448.594 1042.23 496.794 1046.65C528.199 1049.37 559.142 1056 588.913 1066.36L643.395 1085C705.341 1106.18 772.8 1104.66 833.726 1080.7L855.59 1073.53C931.367 1043.66 1015.23 1041.38 1092.52 1067.08L1152.02 1086.79C1160.35 1089.34 1169.23 1089.44 1177.62 1087.09C1186 1084.74 1193.54 1080.03 1199.33 1073.53C1206.08 1066.78 1215.24 1062.99 1224.78 1062.99C1234.33 1062.99 1243.48 1066.78 1250.23 1073.53C1256.98 1080.28 1260.77 1089.43 1260.77 1098.98C1260.77 1108.52 1256.98 1117.68 1250.23 1124.43C1234.67 1139.83 1215.15 1150.63 1193.83 1155.63C1172.51 1160.63 1150.22 1159.63 1129.44 1152.74L1069.94 1132.67C1008.52 1112.35 941.914 1114.26 881.756 1138.05L860.967 1146.29C820.453 1162.86 777.135 1171.5 733.363 1171.74Z" fill="url(#paint2_linear_0_1)"/>
<defs>
<linearGradient id="paint0_linear_0_1" x1="743.143" y1="265" x2="743.143" y2="989.439" gradientUnits="userSpaceOnUse">
<stop stop-color="#1DB0F3"/>
<stop offset="1" stop-color="#64CDFD"/>
</linearGradient>
<linearGradient id="paint1_linear_0_1" x1="721.917" y1="917.722" x2="721.917" y2="1044.71" gradientUnits="userSpaceOnUse">
<stop stop-color="#1DB0F3"/>
<stop offset="1" stop-color="#64CDFD"/>
</linearGradient>
<linearGradient id="paint2_linear_0_1" x1="722.386" y1="1045" x2="722.386" y2="1171.99" gradientUnits="userSpaceOnUse">
<stop stop-color="#1DB0F3"/>
<stop offset="1" stop-color="#64CDFD"/>
</linearGradient>
</defs>
</svg>
